<?xml version="1.0" encoding="utf-8"?>
<!-- Generator: Adobe Illustrator 19.2.1, SVG Export Plug-In . SVG Version: 6.00 Build 0)  -->
<svg version="1.1" id="Layer_1" xmlns="http://www.w3.org/2000/svg" xmlns:xlink="http://www.w3.org/1999/xlink" x="0px" y="0px"
	 viewBox="0 0 420.6 512" style="enable-background:new 0 0 420.6 512;" xml:space="preserve">
<style type="text/css">
	.st0{fill:#FAAF40;}
</style>
<g>
	<g>
		<path class="st0" d="M206.4,505.5c0,4.4-2.7,6.5-8.1,6.5c-5.3,0-9.4-1.2-12.2-3.6c-1.5-1-1.1-3.1,1-6.5c2.2-3.4,3.2-6.6,3.2-9.5
			v-467c0-0.5-0.9-3.4-2.9-8.8c-2.1-5.3-2.9-8.7-2.9-10.1c0-4.4,3.2-6.6,9.6-6.6c8.2,0,12.4,3.5,12.4,10.3V505.5z M236.9,5.7
			c0,2.5-1.1,6.1-3,10.9c-1.9,4.9-2.9,7.8-2.9,8.8v467c0,2.4,1,5.5,2.9,9.1c1.9,3.7,2.2,5.9,0.8,6.9c-2.8,2.4-6.8,3.6-12,3.6
			c-5.2,0-7.8-2.1-7.8-6.5V10.2c0-6.8,4.1-10.3,12.5-10.3C233.7-0.1,236.9,1.8,236.9,5.7z"/>
	</g>
	<path class="st0" d="M180.4,149.3c-0.1-0.3-0.3-0.5-0.3-0.7c-1-2.3-1.5-3.7-1.5-4.2c-0.3-1.5-0.4-2.8-0.4-4.2
		c0-1.7,0.6-4.4,1.9-8.3c-1.9-1.4-4.9-2.1-9.1-2.1c-2.5,0-6,0-10.5,0c-2.3,0-3.4,2.1-3.4,6.2c5.8,10.6,13.5,25.1,23.2,43.3V149.3z"
		/>
	<path class="st0" d="M180.4,225v-30.5c-11.6-21.1-23.2-42.1-34.6-62.6c-0.4-1.4-3.6-2.1-9.6-2.1c-7.4,0-11,0.6-11,1.6
		c2.5,3.1,5.2,6.2,8.1,9.3L180.4,225z"/>
	<path class="st0" d="M413.4,129.8c-3.8,0-7.4,0-11,0c-2.5,0-3.8,1.2-3.8,3.7c0,0.8,0,2.4,0,4.6c0,0.8,0,1.6,0,2.1l-93.6,215.6
		c-1.9,4.5-4,6.8-6.2,6.8c-2.9,0-5.4-2.2-7.6-6.7c-17.8-33-35.3-65.9-52.7-98.8v31.6c2.4,4.6,5,9.4,7.8,14.4
		c19.7,36.6,35.7,65.7,48,87.5c2,3.1,3.8,4.6,5.7,4.6c1.3,0,2.5-0.7,3.4-2.5c14.9-33.7,27.6-62.9,38-87.4
		c11.8-27.7,23.5-55.3,35.3-82.9c13.1-30.5,25.1-58.1,36.2-82.9c0.3-0.5,1.8-1.6,4.3-3.3c2.5-1.7,3.7-3.2,3.3-4.7
		C420.6,130.4,418.2,129.8,413.4,129.8z"/>
	<path class="st0" d="M245.8,315c-2.3-4.3-4.9-8.9-7.2-13.5v33c5.8,11,12.8,23.9,21.1,39.2c10.8,20.2,19.7,36.1,26.7,47.8h3.7
		c1-1.7,2.1-3.5,3.4-5.3c1.3-1.8,1.9-3.5,1.9-5.2c0-1.6-0.3-2.9-0.9-3.8C273.1,366.7,256.9,335.9,245.8,315z"/>
	<path class="st0" d="M240.2,148.8c0-0.3,0.2-0.5,0.3-0.6c1-2.3,1.4-3.7,1.4-4.3c0.4-1.3,0.5-2.8,0.5-4.2c0-1.6-0.6-4.4-1.9-8.4
		c1.9-1.4,4.9-2.1,9.1-2.1c2.5,0,6,0,10.5,0c2.2,0,3.4,2.1,3.4,6.2c-5.8,10.7-13.6,25.1-23.2,43.4V148.8z"/>
	<path class="st0" d="M240.2,224.6V194c11.6-21.2,23.2-42,34.6-62.6c0.3-1.4,3.5-2.1,9.5-2.1c7.4,0,11,0.5,11,1.7
		c-2.5,3.1-5.2,6.1-8.1,9.2L240.2,224.6z"/>
	<path class="st0" d="M7.2,129.3c3.8,0,7.4,0,10.9,0c2.6,0,3.8,1.2,3.8,3.8c0,0.7,0,2.3,0,4.6c0,0.9,0,1.6,0,2.1l93.6,215.6
		c1.9,4.5,4,6.8,6.2,6.8c2.9,0,5.4-2.3,7.7-6.8c17.6-32.8,35.2-65.8,52.6-98.8v31.7c-2.5,4.6-5.1,9.4-7.7,14.4
		c-19.7,36.5-35.8,65.6-48.1,87.5c-1.9,3.1-3.8,4.6-5.7,4.6c-1.2,0-2.4-0.9-3.3-2.5c-14.9-33.8-27.7-62.9-38.1-87.5
		c-11.8-27.6-23.5-55.2-35.3-82.9c-13-30.3-25.1-58-36.2-82.8c-0.3-0.5-1.7-1.7-4.3-3.4c-2.5-1.7-3.7-3.1-3.3-4.5
		C0.1,129.8,2.4,129.3,7.2,129.3z"/>
	<path class="st0" d="M174.9,314.5c2.3-4.3,4.8-8.9,7.2-13.4V334c-5.9,11-12.9,24.1-21.1,39.3c-10.8,20.2-19.6,36.1-26.7,47.8h-3.8
		c-1-1.7-2.1-3.4-3.4-5.3c-1.3-1.8-1.9-3.6-1.9-5.2c0-1.7,0.3-2.9,1-3.8C147.6,366.2,163.7,335.6,174.9,314.5z"/>
</g>
</svg>
